<svg xmlns="http://www.w3.org/2000/svg" viewBox="0 0 480 300" width="480" height="300" role="img" aria-labelledby="t d" font-family="'IBM Plex Sans', 'Segoe UI', system-ui, -apple-system, sans-serif">
<title id="t">Central-line trace and retrace height profiles at 2 Hz</title>
<desc id="d">Measured topography along the central scan line of the 100 nm step-height standard at 2 Hz: forward (trace) and backward (retrace) profiles, height in nm versus position in micrometres.</desc>
<rect width="480" height="300" fill="#ffffff"/>
<text x="56" y="22" font-size="14" font-weight="600" fill="#1d2126">2 Hz line rate</text>
<line x1="56" x2="464" y1="250.0" y2="250.0" stroke="#e3dfd6"/>
<text x="49" y="254.5" font-size="12.5" text-anchor="end" fill="#5a6068">-20</text>
<line x1="56" x2="464" y1="220.0" y2="220.0" stroke="#e3dfd6"/>
<text x="49" y="224.5" font-size="12.5" text-anchor="end" fill="#5a6068">0</text>
<line x1="56" x2="464" y1="190.0" y2="190.0" stroke="#e3dfd6"/>
<text x="49" y="194.5" font-size="12.5" text-anchor="end" fill="#5a6068">20</text>
<line x1="56" x2="464" y1="160.0" y2="160.0" stroke="#e3dfd6"/>
<text x="49" y="164.5" font-size="12.5" text-anchor="end" fill="#5a6068">40</text>
<line x1="56" x2="464" y1="130.0" y2="130.0" stroke="#e3dfd6"/>
<text x="49" y="134.5" font-size="12.5" text-anchor="end" fill="#5a6068">60</text>
<line x1="56" x2="464" y1="100.0" y2="100.0" stroke="#e3dfd6"/>
<text x="49" y="104.5" font-size="12.5" text-anchor="end" fill="#5a6068">80</text>
<line x1="56" x2="464" y1="70.0" y2="70.0" stroke="#e3dfd6"/>
<text x="49" y="74.5" font-size="12.5" text-anchor="end" fill="#5a6068">100</text>
<line x1="56" x2="464" y1="40.0" y2="40.0" stroke="#e3dfd6"/>
<text x="49" y="44.5" font-size="12.5" text-anchor="end" fill="#5a6068">120</text>
<text x="56.0" y="269" font-size="12.5" text-anchor="middle" fill="#5a6068">0</text>
<text x="137.6" y="269" font-size="12.5" text-anchor="middle" fill="#5a6068">2</text>
<text x="219.2" y="269" font-size="12.5" text-anchor="middle" fill="#5a6068">4</text>
<text x="300.8" y="269" font-size="12.5" text-anchor="middle" fill="#5a6068">6</text>
<text x="382.4" y="269" font-size="12.5" text-anchor="middle" fill="#5a6068">8</text>
<text x="464.0" y="269" font-size="12.5" text-anchor="middle" fill="#5a6068">10</text>
<text x="260" y="292" font-size="12.5" text-anchor="middle" fill="#5a6068">Position x (µm)</text>
<text transform="translate(15 145) rotate(-90)" font-size="12.5" text-anchor="middle" fill="#5a6068">Height (nm)</text>
<polyline points="56.0,73.0 56.8,71.5 57.6,70.0 58.4,67.0 59.2,71.5 60.0,71.5 60.8,73.0 61.6,76.0 62.4,74.5 63.2,71.5 64.0,71.5 64.8,73.0 65.6,70.0 66.4,70.0 67.2,73.0 68.0,71.5 68.8,71.5 69.6,73.0 70.4,74.5 71.2,67.0 72.0,73.0 72.8,71.5 73.6,71.5 74.4,67.0 75.2,71.5 76.0,74.5 76.8,71.5 77.6,64.0 78.4,71.5 79.2,70.0 80.0,71.5 80.8,65.5 81.5,74.5 82.3,86.5 83.1,103.0 83.9,127.0 84.7,146.5 85.5,158.5 86.3,169.0 87.1,179.5 87.9,187.0 88.7,197.5 89.5,202.0 90.3,211.0 91.1,217.0 91.9,218.5 92.7,218.5 93.5,220.0 94.3,218.5 95.1,218.5 95.9,221.5 96.7,218.5 97.5,218.5 98.3,220.0 99.1,220.0 99.9,218.5 100.7,218.5 101.5,221.5 102.3,220.0 103.1,220.0 103.9,218.5 104.7,220.0 105.5,220.0 106.3,221.5 107.1,221.5 107.9,221.5 108.7,221.5 109.5,220.0 110.3,221.5 111.1,220.0 111.9,220.0 112.7,220.0 113.5,218.5 114.3,220.0 115.1,220.0 115.9,218.5 116.7,221.5 117.5,223.0 118.3,221.5 119.1,224.5 119.9,221.5 120.7,221.5 121.5,221.5 122.3,220.0 123.1,221.5 123.9,220.0 124.7,223.0 125.5,221.5 126.3,221.5 127.1,220.0 127.9,220.0 128.7,221.5 129.5,218.5 130.3,221.5 131.1,218.5 131.9,218.5 132.6,220.0 133.4,218.5 134.2,220.0 135.0,221.5 135.8,224.5 136.6,227.5 137.4,229.0 138.2,229.0 139.0,226.0 139.8,221.5 140.6,221.5 141.4,220.0 142.2,221.5 143.0,221.5 143.8,223.0 144.6,220.0 145.4,221.5 146.2,221.5 147.0,221.5 147.8,221.5 148.6,221.5 149.4,223.0 150.2,221.5 151.0,221.5 151.8,220.0 152.6,220.0 153.4,221.5 154.2,221.5 155.0,221.5 155.8,220.0 156.6,217.0 157.4,220.0 158.2,221.5 159.0,221.5 159.8,221.5 160.6,221.5 161.4,220.0 162.2,220.0 163.0,218.5 163.8,220.0 164.6,221.5 165.4,220.0 166.2,220.0 167.0,220.0 167.8,218.5 168.6,220.0 169.4,220.0 170.2,221.5 171.0,221.5 171.8,221.5 172.6,221.5 173.4,221.5 174.2,221.5 175.0,221.5 175.8,221.5 176.6,224.5 177.4,221.5 178.2,220.0 179.0,220.0 179.8,221.5 180.6,223.0 181.4,220.0 182.2,221.5 183.0,223.0 183.7,221.5 184.5,221.5 185.3,221.5 186.1,226.0 186.9,227.5 187.7,227.5 188.5,232.0 189.3,227.5 190.1,224.5 190.9,224.5 191.7,223.0 192.5,221.5 193.3,221.5 194.1,221.5 194.9,221.5 195.7,221.5 196.5,218.5 197.3,220.0 198.1,223.0 198.9,218.5 199.7,220.0 200.5,223.0 201.3,220.0 202.1,215.5 202.9,211.0 203.7,202.0 204.5,190.0 205.3,181.0 206.1,164.5 206.9,143.5 207.7,119.5 208.5,97.0 209.3,71.5 210.1,65.5 210.9,67.0 211.7,65.5 212.5,62.5 213.3,68.5 214.1,65.5 214.9,64.0 215.7,65.5 216.5,64.0 217.3,65.5 218.1,65.5 218.9,67.0 219.7,62.5 220.5,64.0 221.3,62.5 222.1,62.5 222.9,62.5 223.7,67.0 224.5,68.5 225.3,73.0 226.1,74.5 226.9,79.0 227.7,79.0 228.5,77.5 229.3,73.0 230.1,70.0 230.9,70.0 231.7,68.5 232.5,67.0 233.3,67.0 234.1,64.0 234.8,65.5 235.6,64.0 236.4,61.0 237.2,64.0 238.0,62.5 238.8,64.0 239.6,62.5 240.4,61.0 241.2,64.0 242.0,61.0 242.8,64.0 243.6,59.5 244.4,61.0 245.2,61.0 246.0,62.5 246.8,64.0 247.6,62.5 248.4,61.0 249.2,61.0 250.0,62.5 250.8,62.5 251.6,61.0 252.4,61.0 253.2,61.0 254.0,61.0 254.8,61.0 255.6,61.0 256.4,61.0 257.2,65.5 258.0,59.5 258.8,59.5 259.6,62.5 260.4,61.0 261.2,62.5 262.0,61.0 262.8,61.0 263.6,62.5 264.4,61.0 265.2,64.0 266.0,65.5 266.8,70.0 267.6,71.5 268.4,74.5 269.2,83.5 270.0,88.0 270.8,82.0 271.6,70.0 272.4,68.5 273.2,61.0 274.0,70.0 274.8,67.0 275.6,62.5 276.4,64.0 277.2,61.0 278.0,59.5 278.8,62.5 279.6,64.0 280.4,68.5 281.2,79.0 282.0,86.5 282.8,100.0 283.6,113.5 284.4,127.0 285.2,139.0 285.9,149.5 286.7,161.5 287.5,181.0 288.3,191.5 289.1,205.0 289.9,212.5 290.7,215.5 291.5,214.0 292.3,215.5 293.1,217.0 293.9,215.5 294.7,215.5 295.5,217.0 296.3,217.0 297.1,217.0 297.9,217.0 298.7,215.5 299.5,220.0 300.3,217.0 301.1,218.5 301.9,217.0 302.7,217.0 303.5,220.0 304.3,217.0 305.1,220.0 305.9,217.0 306.7,217.0 307.5,218.5 308.3,220.0 309.1,220.0 309.9,218.5 310.7,217.0 311.5,221.5 312.3,221.5 313.1,220.0 313.9,220.0 314.7,218.5 315.5,218.5 316.3,220.0 317.1,218.5 317.9,220.0 318.7,218.5 319.5,218.5 320.3,218.5 321.1,218.5 321.9,220.0 322.7,218.5 323.5,223.0 324.3,220.0 325.1,223.0 325.9,220.0 326.7,223.0 327.5,220.0 328.3,223.0 329.1,226.0 329.9,223.0 330.7,226.0 331.5,223.0 332.3,224.5 333.1,224.5 333.9,223.0 334.7,226.0 335.5,223.0 336.3,221.5 337.0,221.5 337.8,221.5 338.6,221.5 339.4,218.5 340.2,220.0 341.0,220.0 341.8,221.5 342.6,220.0 343.4,220.0 344.2,220.0 345.0,220.0 345.8,218.5 346.6,218.5 347.4,218.5 348.2,220.0 349.0,218.5 349.8,220.0 350.6,220.0 351.4,221.5 352.2,221.5 353.0,220.0 353.8,218.5 354.6,220.0 355.4,220.0 356.2,218.5 357.0,218.5 357.8,218.5 358.6,220.0 359.4,220.0 360.2,221.5 361.0,220.0 361.8,218.5 362.6,220.0 363.4,223.0 364.2,220.0 365.0,220.0 365.8,220.0 366.6,218.5 367.4,220.0 368.2,220.0 369.0,218.5 369.8,220.0 370.6,220.0 371.4,221.5 372.2,223.0 373.0,221.5 373.8,218.5 374.6,218.5 375.4,220.0 376.2,220.0 377.0,218.5 377.8,220.0 378.6,220.0 379.4,220.0 380.2,220.0 381.0,220.0 381.8,221.5 382.6,220.0 383.4,220.0 384.2,218.5 385.0,218.5 385.8,218.5 386.6,218.5 387.4,220.0 388.1,221.5 388.9,217.0 389.7,218.5 390.5,220.0 391.3,218.5 392.1,218.5 392.9,217.0 393.7,220.0 394.5,221.5 395.3,218.5 396.1,218.5 396.9,218.5 397.7,217.0 398.5,218.5 399.3,221.5 400.1,218.5 400.9,218.5 401.7,218.5 402.5,218.5 403.3,208.0 404.1,199.0 404.9,185.5 405.7,166.0 406.5,139.0 407.3,115.0 408.1,88.0 408.9,68.5 409.7,62.5 410.5,62.5 411.3,62.5 412.1,62.5 412.9,61.0 413.7,61.0 414.5,62.5 415.3,61.0 416.1,61.0 416.9,62.5 417.7,61.0 418.5,61.0 419.3,59.5 420.1,62.5 420.9,65.5 421.7,59.5 422.5,62.5 423.3,61.0 424.1,59.5 424.9,61.0 425.7,59.5 426.5,61.0 427.3,61.0 428.1,61.0 428.9,59.5 429.7,59.5 430.5,61.0 431.3,59.5 432.1,59.5 432.9,59.5 433.7,59.5 434.5,59.5 435.3,58.0 436.1,61.0 436.9,58.0 437.7,58.0 438.5,59.5 439.2,59.5 440.0,59.5 440.8,56.5 441.6,59.5 442.4,58.0 443.2,59.5 444.0,58.0 444.8,58.0 445.6,59.5 446.4,58.0 447.2,58.0 448.0,58.0 448.8,56.5 449.6,59.5 450.4,58.0 451.2,59.5 452.0,58.0 452.8,61.0 453.6,58.0 454.4,53.5 455.2,58.0 456.0,58.0 456.8,58.0 457.6,58.0 458.4,58.0 459.2,58.0 460.0,58.0 460.8,59.5 461.6,59.5 462.4,58.0 463.2,58.0 464.0,56.5" fill="none" stroke="#0f5c6e" stroke-width="1.6" stroke-linejoin="round"/>
<polyline points="56.0,70.0 56.8,71.5 57.6,74.5 58.4,71.5 59.2,70.0 60.0,74.5 60.8,76.0 61.6,68.5 62.4,71.5 63.2,73.0 64.0,67.0 64.8,65.5 65.6,70.0 66.4,68.5 67.2,74.5 68.0,71.5 68.8,73.0 69.6,71.5 70.4,73.0 71.2,65.5 72.0,73.0 72.8,71.5 73.6,74.5 74.4,71.5 75.2,77.5 76.0,74.5 76.8,73.0 77.6,76.0 78.4,77.5 79.2,79.0 80.0,80.5 80.8,92.5 81.5,104.5 82.3,121.0 83.1,145.0 83.9,152.5 84.7,157.0 85.5,167.5 86.3,178.0 87.1,191.5 87.9,202.0 88.7,214.0 89.5,218.5 90.3,220.0 91.1,220.0 91.9,220.0 92.7,221.5 93.5,221.5 94.3,221.5 95.1,218.5 95.9,218.5 96.7,220.0 97.5,218.5 98.3,220.0 99.1,220.0 99.9,220.0 100.7,220.0 101.5,218.5 102.3,220.0 103.1,218.5 103.9,221.5 104.7,220.0 105.5,220.0 106.3,220.0 107.1,220.0 107.9,217.0 108.7,220.0 109.5,220.0 110.3,221.5 111.1,220.0 111.9,220.0 112.7,218.5 113.5,223.0 114.3,220.0 115.1,221.5 115.9,221.5 116.7,218.5 117.5,221.5 118.3,223.0 119.1,221.5 119.9,223.0 120.7,223.0 121.5,223.0 122.3,223.0 123.1,223.0 123.9,221.5 124.7,220.0 125.5,218.5 126.3,220.0 127.1,220.0 127.9,221.5 128.7,221.5 129.5,220.0 130.3,220.0 131.1,220.0 131.9,221.5 132.6,220.0 133.4,220.0 134.2,221.5 135.0,223.0 135.8,223.0 136.6,223.0 137.4,224.5 138.2,221.5 139.0,224.5 139.8,220.0 140.6,220.0 141.4,221.5 142.2,221.5 143.0,220.0 143.8,220.0 144.6,217.0 145.4,218.5 146.2,220.0 147.0,218.5 147.8,220.0 148.6,218.5 149.4,220.0 150.2,220.0 151.0,221.5 151.8,218.5 152.6,221.5 153.4,218.5 154.2,217.0 155.0,218.5 155.8,223.0 156.6,221.5 157.4,220.0 158.2,220.0 159.0,220.0 159.8,218.5 160.6,218.5 161.4,220.0 162.2,220.0 163.0,220.0 163.8,220.0 164.6,218.5 165.4,217.0 166.2,218.5 167.0,220.0 167.8,221.5 168.6,220.0 169.4,220.0 170.2,220.0 171.0,221.5 171.8,217.0 172.6,220.0 173.4,218.5 174.2,221.5 175.0,220.0 175.8,220.0 176.6,218.5 177.4,218.5 178.2,218.5 179.0,220.0 179.8,218.5 180.6,218.5 181.4,218.5 182.2,218.5 183.0,217.0 183.7,220.0 184.5,221.5 185.3,224.5 186.1,227.5 186.9,226.0 187.7,223.0 188.5,223.0 189.3,218.5 190.1,218.5 190.9,217.0 191.7,215.5 192.5,217.0 193.3,217.0 194.1,217.0 194.9,217.0 195.7,217.0 196.5,218.5 197.3,218.5 198.1,218.5 198.9,217.0 199.7,215.5 200.5,215.5 201.3,214.0 202.1,209.5 202.9,199.0 203.7,194.5 204.5,175.0 205.3,154.0 206.1,124.0 206.9,86.5 207.7,64.0 208.5,61.0 209.3,62.5 210.1,64.0 210.9,58.0 211.7,62.5 212.5,62.5 213.3,59.5 214.1,59.5 214.9,62.5 215.7,61.0 216.5,62.5 217.3,64.0 218.1,62.5 218.9,64.0 219.7,61.0 220.5,62.5 221.3,61.0 222.1,62.5 222.9,65.5 223.7,64.0 224.5,68.5 225.3,71.5 226.1,76.0 226.9,76.0 227.7,73.0 228.5,70.0 229.3,67.0 230.1,64.0 230.9,64.0 231.7,61.0 232.5,62.5 233.3,62.5 234.1,65.5 234.8,62.5 235.6,62.5 236.4,62.5 237.2,61.0 238.0,62.5 238.8,61.0 239.6,61.0 240.4,61.0 241.2,61.0 242.0,59.5 242.8,62.5 243.6,62.5 244.4,61.0 245.2,61.0 246.0,61.0 246.8,62.5 247.6,64.0 248.4,61.0 249.2,64.0 250.0,62.5 250.8,64.0 251.6,62.5 252.4,62.5 253.2,64.0 254.0,61.0 254.8,61.0 255.6,64.0 256.4,64.0 257.2,64.0 258.0,67.0 258.8,64.0 259.6,67.0 260.4,64.0 261.2,64.0 262.0,64.0 262.8,64.0 263.6,65.5 264.4,64.0 265.2,71.5 266.0,70.0 266.8,74.5 267.6,82.0 268.4,82.0 269.2,92.5 270.0,94.0 270.8,83.5 271.6,89.5 272.4,76.0 273.2,70.0 274.0,67.0 274.8,67.0 275.6,70.0 276.4,65.5 277.2,65.5 278.0,67.0 278.8,68.5 279.6,82.0 280.4,97.0 281.2,109.0 282.0,130.0 282.8,139.0 283.6,148.0 284.4,155.5 285.2,164.5 285.9,176.5 286.7,178.0 287.5,196.0 288.3,206.5 289.1,215.5 289.9,220.0 290.7,218.5 291.5,220.0 292.3,221.5 293.1,221.5 293.9,221.5 294.7,221.5 295.5,221.5 296.3,220.0 297.1,220.0 297.9,220.0 298.7,220.0 299.5,220.0 300.3,220.0 301.1,220.0 301.9,221.5 302.7,220.0 303.5,221.5 304.3,224.5 305.1,221.5 305.9,221.5 306.7,223.0 307.5,218.5 308.3,220.0 309.1,220.0 309.9,221.5 310.7,220.0 311.5,220.0 312.3,220.0 313.1,220.0 313.9,221.5 314.7,220.0 315.5,220.0 316.3,221.5 317.1,218.5 317.9,221.5 318.7,221.5 319.5,221.5 320.3,223.0 321.1,221.5 321.9,224.5 322.7,224.5 323.5,223.0 324.3,224.5 325.1,224.5 325.9,223.0 326.7,223.0 327.5,226.0 328.3,226.0 329.1,226.0 329.9,226.0 330.7,224.5 331.5,227.5 332.3,227.5 333.1,226.0 333.9,224.5 334.7,223.0 335.5,223.0 336.3,223.0 337.0,223.0 337.8,223.0 338.6,221.5 339.4,223.0 340.2,221.5 341.0,220.0 341.8,223.0 342.6,221.5 343.4,221.5 344.2,221.5 345.0,221.5 345.8,221.5 346.6,220.0 347.4,221.5 348.2,220.0 349.0,220.0 349.8,221.5 350.6,221.5 351.4,221.5 352.2,221.5 353.0,220.0 353.8,220.0 354.6,220.0 355.4,220.0 356.2,220.0 357.0,220.0 357.8,220.0 358.6,220.0 359.4,220.0 360.2,220.0 361.0,218.5 361.8,220.0 362.6,221.5 363.4,221.5 364.2,220.0 365.0,220.0 365.8,218.5 366.6,218.5 367.4,218.5 368.2,221.5 369.0,221.5 369.8,220.0 370.6,218.5 371.4,218.5 372.2,221.5 373.0,220.0 373.8,218.5 374.6,220.0 375.4,218.5 376.2,220.0 377.0,220.0 377.8,220.0 378.6,218.5 379.4,218.5 380.2,218.5 381.0,218.5 381.8,220.0 382.6,217.0 383.4,221.5 384.2,218.5 385.0,217.0 385.8,218.5 386.6,218.5 387.4,220.0 388.1,217.0 388.9,218.5 389.7,215.5 390.5,217.0 391.3,218.5 392.1,217.0 392.9,217.0 393.7,218.5 394.5,217.0 395.3,217.0 396.1,215.5 396.9,218.5 397.7,215.5 398.5,215.5 399.3,211.0 400.1,212.5 400.9,209.5 401.7,209.5 402.5,206.5 403.3,199.0 404.1,194.5 404.9,185.5 405.7,158.5 406.5,116.5 407.3,67.0 408.1,61.0 408.9,59.5 409.7,59.5 410.5,58.0 411.3,61.0 412.1,58.0 412.9,58.0 413.7,61.0 414.5,56.5 415.3,59.5 416.1,59.5 416.9,59.5 417.7,58.0 418.5,59.5 419.3,59.5 420.1,58.0 420.9,61.0 421.7,61.0 422.5,59.5 423.3,59.5 424.1,56.5 424.9,59.5 425.7,59.5 426.5,59.5 427.3,59.5 428.1,58.0 428.9,61.0 429.7,59.5 430.5,61.0 431.3,59.5 432.1,59.5 432.9,58.0 433.7,59.5 434.5,59.5 435.3,58.0 436.1,58.0 436.9,58.0 437.7,59.5 438.5,59.5 439.2,61.0 440.0,61.0 440.8,61.0 441.6,61.0 442.4,59.5 443.2,59.5 444.0,59.5 444.8,59.5 445.6,58.0 446.4,59.5 447.2,61.0 448.0,59.5 448.8,61.0 449.6,58.0 450.4,61.0 451.2,61.0 452.0,58.0 452.8,61.0 453.6,59.5 454.4,58.0 455.2,58.0 456.0,58.0 456.8,58.0 457.6,59.5 458.4,59.5 459.2,59.5 460.0,59.5 460.8,58.0 461.6,59.5 462.4,62.5 463.2,58.0 464.0,58.0" fill="none" stroke="#b5541e" stroke-width="1.6" stroke-linejoin="round"/>
<line x1="214" x2="232" y1="18" y2="18" stroke="#0f5c6e" stroke-width="2.5"/><text x="238" y="22" font-size="12.5" fill="#1d2126">Trace</text>
<line x1="294" x2="312" y1="18" y2="18" stroke="#b5541e" stroke-width="2.5"/><text x="318" y="22" font-size="12.5" fill="#1d2126">Retrace</text>
</svg>
